<?xml version="1.0" encoding="utf-8"?>
<!-- Generator: Adobe Illustrator 15.0.2, SVG Export Plug-In . SVG Version: 6.00 Build 0)  -->
<!DOCTYPE svg PUBLIC "-//W3C//DTD SVG 1.1//EN" "http://www.w3.org/Graphics/SVG/1.1/DTD/svg11.dtd">
<svg version="1.1" xmlns="http://www.w3.org/2000/svg" xmlns:xlink="http://www.w3.org/1999/xlink" x="0px" y="0px" width="500px"
	 height="500px" viewBox="0 0 500 500" enable-background="new 0 0 500 500" xml:space="preserve">
<g id="Layer_3">
</g>
<g id="Layer_4" display="none">
	<g display="inline">
		<g>
			<path fill="#C977C7" d="M227.12,48.007c-8.814,34.668-8.291,71.433,1.349,105.872c1.215,4.34,7.969,2.494,6.75-1.861
				c-9.307-33.252-9.86-68.669-1.349-102.149C234.982,45.491,228.231,43.635,227.12,48.007L227.12,48.007z"/>
		</g>
	</g>
	<g display="inline">
		<g>
			<path fill="#C977C7" d="M321.277,223.897c7.329,1.677,14.905-1.7,21.535-4.488c8.935-3.757,17.929-7.275,26.586-11.661
				c18.913-9.583,36.091-22.3,52.393-35.763c3.484-2.877-1.498-7.8-4.949-4.95c-15.001,12.388-30.748,23.815-47.899,33.059
				c-7.836,4.224-16.011,7.454-24.183,10.93c-6.115,2.602-14.737,7.698-21.621,6.123
				C318.744,216.141,316.878,222.89,321.277,223.897L321.277,223.897z"/>
		</g>
	</g>
	<g display="inline">
		<g>
			<path fill="#C977C7" d="M292.084,296.532c14.535,11.558,21.761,31.271,30.004,47.351c10.855,21.176,19.474,44.353,22.244,68.097
				c0.517,4.429,7.522,4.479,7,0c-2.866-24.571-11.468-48.048-22.43-70.104c-8.486-17.075-16.543-38.106-31.869-50.292
				C293.539,288.805,288.551,293.724,292.084,296.532L292.084,296.532z"/>
		</g>
	</g>
	<g display="inline">
		<g>
			<path fill="#C977C7" d="M125.969,434.691c8.784-1.002,14.384-8.88,18.908-15.731c5.706-8.64,10.62-17.938,15.946-26.822
				c13.377-22.315,26.383-47.235,28.664-73.568c0.39-4.499-6.614-4.462-7,0c-2.039,23.537-13.663,45.816-25.294,65.938
				c-4.711,8.15-9.661,16.145-14.341,24.313c-3.349,5.845-9.167,17.991-16.882,18.871
				C121.537,428.196,121.488,435.202,125.969,434.691L125.969,434.691z"/>
		</g>
	</g>
	<g display="inline">
		<g>
			<path fill="#C977C7" d="M62.322,193.732c15.929-6.936,34.717-0.137,49.693,6.187c15.306,6.464,29.738,15.031,45.392,20.665
				c4.258,1.533,6.075-5.233,1.861-6.75c-17.155-6.174-32.93-15.759-49.879-22.495c-15.97-6.347-34.166-10.808-50.601-3.651
				C54.66,189.486,58.227,195.516,62.322,193.732L62.322,193.732z"/>
		</g>
	</g>
</g>
<g id="Layer_5">
	<g>
		<path fill="#FFFFFF" d="M435.177,409.676c6.488-7.78,17.614-8.505,24.848-1.623L730.17,665.098
			c7.229,6.884,7.836,18.769,1.347,26.549l-37.458,44.894c-6.49,7.781-17.616,8.506-24.849,1.622L399.066,481.119
			c-7.231-6.884-7.834-18.77-1.348-26.549L435.177,409.676z"/>
		<path fill="#FFFFFF" d="M435.177,409.676c1.621-1.961,3.653-3.589,5.947-4.701c2.293-1.112,4.841-1.703,7.394-1.69
			c2.553,0.008,5.102,0.618,7.386,1.766c1.143,0.571,2.221,1.273,3.209,2.084c0.987,0.817,1.874,1.729,2.81,2.592
			c7.396,6.993,14.867,13.906,22.298,20.863c14.902,13.869,29.878,27.663,44.938,41.366c15.048,13.717,30.184,27.342,45.356,40.928
			l45.62,40.649l45.624,40.646c15.174,13.584,30.311,27.208,45.365,40.918c7.51,6.874,15.069,13.694,22.532,20.617l2.806,2.588
			l0.436,0.412l0.534,0.53c0.373,0.381,0.673,0.705,0.998,1.073c0.635,0.719,1.231,1.471,1.786,2.25
			c2.223,3.121,3.763,6.661,4.584,10.319c1.652,7.303,0.462,15.218-3.59,21.759c-0.502,0.814-1.046,1.604-1.628,2.366l-0.443,0.566
			l-0.371,0.457l-0.604,0.738l-2.418,2.954l-4.835,5.907l-9.688,11.801l-19.488,23.508c-2.469,2.987-5.671,5.53-9.306,7.27
			c-3.635,1.744-7.702,2.669-11.778,2.628c-4.075-0.031-8.152-1.034-11.759-2.872c-1.806-0.913-3.492-2.028-5.02-3.293
			c-1.743-1.482-2.333-2.165-3.32-3.076c-7.363-7.027-14.631-14.156-21.95-21.229c-7.327-7.065-14.561-14.229-21.833-21.352
			c-7.282-7.113-14.489-14.305-21.718-21.474c-14.449-14.346-28.806-28.789-43.127-43.271l-42.857-43.553l-42.854-43.558
			c-14.319-14.482-28.675-28.928-43.117-43.28c-7.234-7.163-14.429-14.368-21.711-21.479l-2.725-2.675
			c-0.939-0.912-1.803-1.938-2.537-3.028c-1.475-2.187-2.482-4.666-2.989-7.229c-1.012-5.129-0.035-10.607,2.762-14.983
			c0.685-1.1,1.535-2.101,2.358-3.056l2.473-2.907l4.946-5.815l9.869-11.65L435.177,409.676z M435.177,409.676l-19.488,23.508
			l-9.693,11.797l-4.835,5.907l-2.418,2.954c-0.817,0.986-1.602,1.947-2.245,3.023c-1.304,2.131-2.176,4.518-2.566,6.978
			c-0.38,2.461-0.287,4.988,0.269,7.4c0.556,2.411,1.577,4.708,3.013,6.698c0.721,0.999,1.532,1.906,2.444,2.739l2.806,2.589
			c7.465,6.921,15.019,13.748,22.531,20.617c15.054,13.712,30.193,27.332,45.369,40.914l45.632,40.639l45.629,40.642
			c15.174,13.583,30.313,27.205,45.359,40.924c7.519,6.864,15.06,13.705,22.525,20.624c7.475,6.91,14.988,13.779,22.409,20.746
			c7.428,6.959,14.909,13.863,22.293,20.868c2.292,2.187,2.568,2.451,3.63,2.991c0.934,0.463,1.933,0.693,2.948,0.693
			c2.043-0.002,4.049-0.942,5.596-2.791l19.637-23.385l9.875-11.645l4.946-5.815l2.473-2.908l1.004-1.187
			c0.197-0.245,0.382-0.499,0.554-0.764c1.379-2.093,1.962-4.954,1.47-7.602c-0.242-1.317-0.731-2.553-1.42-3.61
			c-0.173-0.265-0.357-0.519-0.555-0.762l-0.287-0.338l-0.036-0.044c0.002-0.003-0.027-0.035-0.099-0.105l-0.25-0.253l-2.725-2.674
			c-7.284-7.11-14.473-14.321-21.711-21.48c-14.44-14.354-28.799-28.796-43.12-43.277l-42.862-43.549l-42.866-43.544
			c-14.322-14.479-28.683-28.92-43.13-43.268c-14.435-14.362-28.954-28.634-43.547-42.829c-7.317-7.075-14.593-14.194-21.945-21.234
			c-0.929-0.868-1.814-1.789-2.784-2.601c-0.974-0.809-2.037-1.512-3.167-2.085c-2.257-1.152-4.783-1.775-7.321-1.799
			c-2.538-0.028-5.079,0.543-7.371,1.639C438.851,406.112,436.81,407.726,435.177,409.676z"/>
	</g>
	
		<rect x="354.517" y="391.785" transform="matrix(0.6921 0.7218 -0.7218 0.6921 418.9357 -159.5732)" fill="#FFFFFF" stroke="#FFFFFF" stroke-miterlimit="10" width="84.001" height="39"/>
	<path fill="none" stroke="#FFFFFF" stroke-width="40" stroke-miterlimit="10" d="M370.854,388.615
		c-77.31,85.818-204.377,89.273-283.815,7.723c-79.435-81.556-81.16-217.231-3.85-303.049C160.496,7.473,287.565,4.017,367,85.568
		C446.437,167.122,448.161,302.801,370.854,388.615z"/>
</g>
<g id="Layer_2">
	<g>
		<path fill="#FFFFFF" d="M175.88,232.256c2.351-26.245,25.534-45.615,51.779-43.264c6.988,0.626,13.481,2.741,19.214,5.985
			c15.24-18.115,32.612-51.214,35.042-57.249c6.061-15.063,6.763-30.733-8.239-40.83c-12.087-8.141-33.088-5.363-42.513,5.927
			c-6.555-13.455-24.726-16.108-37.706-10.83c-15.436,6.277-19.345,21.179-20.413,35.972c-1.152,15.945,1.965,28.411,9.386,42.815
			c2.936,5.697,7.989,15.44,13.827,23.809c-0.479,0.264-0.95,0.543-1.419,0.824c-14.508-18.702-40.066-41.453-45.104-45.124
			c-13.253-9.66-28.457-14.349-42.15-2.657c-11.037,9.428-13.608,30.15-4.903,42.033c-14.856,2.78-22.041,19.413-20.133,33.141
			c2.268,16.325,15.908,23.882,30.155,28.712c15.359,5.2,28.38,5.432,44.389,2.066c4.331-0.911,10.771-2.276,17.51-4.141
			c1.124,3.438,2.64,6.711,4.506,9.758c-19.742,1.234-68.984,35.046-75.539,40.595c-13.035,11.048-21.484,25.188-12.868,41.591
			c6.948,13.228,27.453,20.584,41.666,14.603c-0.747,15.523,14.474,26.561,28.924,27.813c17.179,1.495,28.174-10.423,36.529-23.576
			c9-14.185,12.377-27.165,12.808-43.972c0.202-7.883,0.524-22.421-1.507-34.224C188.154,275.481,173.84,255.026,175.88,232.256z"/>
		<path fill="#FFFFFF" d="M307.401,271.547c-8.184-5.965-24.286-17.614-37.903-22.749c-5.319,20.056-23.201,34.514-44.072,35.375
			c-5.807,26.606-6.979,65.115-6.476,72.148c1.33,18.686,8.672,35.262,29.777,38.098c17.019,2.28,37.856-11.266,42.026-27.75
			c13.885,10.604,34.523,4.117,45.566-7.938c13.134-14.345,9.593-31.764,3.107-47.626
			C332.425,294.014,322.692,282.689,307.401,271.547z"/>
		<path fill="#FFFFFF" d="M356.264,191.635c9.079-11.903,3.052-29.008-7.714-37.937c-12.806-10.622-28.038-7.204-41.854-1.36
			c-14.897,6.309-24.68,14.748-34.213,27.843c-3.766,5.17-10.178,14.03-15.007,22.954c9.425,9.63,14.743,23.164,13.446,37.637
			c-0.12,1.337-0.308,2.652-0.533,3.952c20.221,7.903,70.313,8.042,77.954,7.293c16.375-1.607,30.812-8.18,32.955-25.924
			C383.028,211.786,370.8,194.698,356.264,191.635z"/>
	</g>
</g>
</svg>
